<?xml version="1.0" standalone="no"?><!DOCTYPE svg PUBLIC "-//W3C//DTD SVG 1.1//EN" "http://www.w3.org/Graphics/SVG/1.1/DTD/svg11.dtd"><svg t="1752943867030" class="icon" viewBox="0 0 1024 1024" version="1.1" xmlns="http://www.w3.org/2000/svg" p-id="1498" width="96" height="96" xmlns:xlink="http://www.w3.org/1999/xlink"><path d="M512 512m-475.428571 0a475.428571 475.428571 0 1 0 950.857142 0 475.428571 475.428571 0 1 0-950.857142 0Z" fill="#055DFF" p-id="1499"></path><path d="M362.422857 363.885714m29.805714 0l228.388572 0q29.805714 0 29.805714 29.805715l0 228.388571q0 29.805714-29.805714 29.805714l-228.388572 0q-29.805714 0-29.805714-29.805714l0-228.388571q0-29.805714 29.805714-29.805715Z" fill="#FFFFFF" p-id="1500"></path><path d="M658.285714 294.582857H365.714286a54.857143 54.857143 0 0 0-54.857143 54.857143v292.571429a54.857143 54.857143 0 0 0 54.857143 54.857142h292.571428a54.857143 54.857143 0 0 0 54.857143-54.857142v-292.571429a54.857143 54.857143 0 0 0-54.857143-54.857143zM664.137143 621.714286a43.52 43.52 0 0 1-43.52 43.337143h-228.571429A43.337143 43.337143 0 0 1 348.708571 621.714286V393.691429a43.52 43.52 0 0 1 43.337143-43.52h228.571429a43.702857 43.702857 0 0 1 43.52 43.52zM662.857143 276.297143h-301.714286L420.571429 159.085714a34.011429 34.011429 0 0 1 31.085714-16.822857h122.148571A34.011429 34.011429 0 0 1 603.428571 159.085714zM361.142857 713.142857h301.714286L603.428571 829.44a34.377143 34.377143 0 0 1-31.085714 16.822857h-121.417143a34.377143 34.377143 0 0 1-31.085714-16.822857z" fill="#FFFFFF" p-id="1501"></path></svg>